# xmcd CD database file
#
# Track frame offsets:
#	182
#	37787
#	71060
#	94752
#	107165
#	121202
#	135337
#	148272
#	164800
#	178182
#	191787
#	205990
#	220925
#	235080
#	254055
#	275290
#	293550
#	312387
#
# Disc length: 4323 seconds
#
# Revision: 3
# Processed by: cddbd v1.5.2PL0 Copyright (c) Steve Scherf et al.
# Submitted via: CDex 1.51
#
DISCID=1b10e112
DTITLE=Erroll Garner - 1944 Vol.2
DYEAR=1995
DGENRE=Jazz
TTITLE0=I Hear A Rhapsody (Part 1&2)
TTITLE1=Erroll's Reverle
TTITLE2=You Were Born To Be Kissed
TTITLE3=Perdido
TTITLE4=Soft And Warm
TTITLE5=Everything Happens To Me
TTITLE6=I'm In The Mood For Love
TTITLE7=All The Things You Are
TTITLE8=Blue Room
TTITLE9=I Get A Kick Out Of You
TTITLE10=Blues I Can't Forget
TTITLE11=Boogle Woogle Boogie
TTITLE12=Gliss In The Dark
TTITLE13=The Fighting Cocks
TTITLE14=A Lick And A Promise
TTITLE15=Opus 1
TTITLE16=Gaslight
TTITLE17=Twistin' The Cat's Tail
EXTD=YEAR: 1995
EXTT0=
EXTT1=
EXTT2=
EXTT3=
EXTT4=
EXTT5=
EXTT6=
EXTT7=
EXTT8=
EXTT9=
EXTT10=
EXTT11=
EXTT12=
EXTT13=
EXTT14=
EXTT15=
EXTT16=
EXTT17=
PLAYORDER=
